<svg width="18" height="22" viewBox="0 0 18 22" fill="none" xmlns="http://www.w3.org/2000/svg">
<path fill-rule="evenodd" clip-rule="evenodd" d="M9.40625 0.437897C9.29851 0.437897 9.19517 0.480698 9.11899 0.556885C9.0428 0.633071 9 0.736403 9 0.844147V15.4691C9 16.5904 8.09 17.5004 6.96875 17.5004C5.8475 17.5004 4.9375 16.5904 4.9375 15.4691C4.9375 14.3479 5.8475 13.4379 6.96875 13.4379C7.07649 13.4379 7.17983 13.3951 7.25601 13.3189C7.3322 13.2427 7.375 13.1394 7.375 13.0316V9.78165C7.375 9.6739 7.3322 9.57057 7.25601 9.49438C7.17983 9.4182 7.07649 9.3754 6.96875 9.3754C3.605 9.3754 0.875 12.1058 0.875 15.4691C0.875 18.8329 3.605 21.5629 6.96875 21.5629C10.3321 21.5629 13.0625 18.8329 13.0625 15.4691V7.95108C13.9559 8.35547 14.9256 8.56407 15.9062 8.5629H16.7188C16.8265 8.5629 16.9298 8.5201 17.006 8.44391C17.0822 8.36772 17.125 8.26439 17.125 8.15665V4.90665C17.125 4.7989 17.0822 4.69557 17.006 4.61939C16.9298 4.5432 16.8265 4.5004 16.7188 4.5004H15.9062C14.3369 4.5004 13.0625 3.22599 13.0625 1.65665V0.844147C13.0625 0.736403 13.0197 0.633071 12.9435 0.556885C12.8673 0.480698 12.764 0.437897 12.6562 0.437897H9.40625Z" fill="#33B7BC"/>
</svg>
