<svg width="26" height="20" viewBox="0 0 26 20" fill="none" xmlns="http://www.w3.org/2000/svg">
<path d="M25.241 4.90832C25.241 4.69166 24.916 2.95832 24.1577 2.19999C23.1827 1.11666 22.0993 1.00832 21.5577 1.00832H21.4493C18.091 0.791657 13.1077 0.791656 12.9993 0.791656C12.9993 0.791656 7.90768 0.791657 4.54935 1.00832H4.44102C3.89935 1.00832 2.81602 1.11666 1.84102 2.19999C1.08268 3.06666 0.757682 4.79999 0.757682 5.01666C0.757682 5.12499 0.541016 7.07499 0.541016 9.13332V10.975C0.541016 13.0333 0.757682 14.9833 0.757682 15.0917C0.757682 15.3083 1.08268 17.0417 1.84102 17.8C2.70768 18.775 3.79102 18.8833 4.44102 18.9917H4.76602C6.71602 19.2083 12.6743 19.2083 12.891 19.2083C12.891 19.2083 17.9827 19.2083 21.341 18.9917H21.4493C21.991 18.8833 23.0743 18.775 24.0493 17.8C24.8077 16.9333 25.1327 15.2 25.1327 14.9833C25.1327 14.875 25.3493 12.925 25.3493 10.8667V9.02499C25.4577 7.07499 25.241 5.01666 25.241 4.90832ZM17.2243 10.2167L10.7243 13.6833C10.616 13.6833 10.616 13.7917 10.5077 13.7917C10.3993 13.7917 10.291 13.7917 10.291 13.6833C10.1827 13.575 10.0743 13.4667 10.0743 13.25V6.20832C10.0743 5.99166 10.1827 5.88332 10.291 5.77499C10.3993 5.66666 10.616 5.66666 10.8327 5.77499L17.3327 9.24166C17.5493 9.34999 17.6577 9.45832 17.6577 9.67499C17.6577 9.89166 17.441 10.1083 17.2243 10.2167Z" fill="#33B7BC"/>
</svg>
